<svg id="Capa_1" data-name="Capa 1" xmlns="http://www.w3.org/2000/svg" viewBox="0 0 511.985 512.00651"><defs><style>.cls-1{stroke:#000;stroke-linecap:round;stroke-miterlimit:10;stroke-width:18px;}</style></defs><title>baking_icon</title><path d="M35.07,466.371a8.16991,8.16991,0,1,0,11.554,11.554l11.554-11.554a8.1699,8.1699,0,0,0-11.554-11.554Z" transform="translate(-0.009 -0.99849)"/><path d="M71.12561,91.37659,20.323,40.574A13.61746,13.61746,0,0,1,39.581,21.316L90.383,72.118,42.24,120.264a24.56,24.56,0,0,0,0,34.664L167.695,280.383c-9.303,14.979-16.725,26.937-21.238,34.211a8.1629,8.1629,0,0,0-7.928,2.099L11.961,443.266a40.852,40.852,0,1,0,57.774,57.773L196.304,374.47a8.1635,8.1635,0,0,0,2.099-7.929c7.274-4.514,19.232-11.936,34.211-21.238L358.069,470.758a24.56,24.56,0,0,0,34.664,0l48.145-48.145,50.802,50.802a13.61746,13.61746,0,1,1-19.258,19.258l-54.921-54.921c-3.19-3.191-7.336-2.164-10.527,1.027-3.191,3.19-4.687,6.867-1.496,10.058l55.39,55.39a29.958,29.958,0,0,0,42.366-42.368l-50.801-50.803,17.332-17.332a24.56,24.56,0,0,0,0-34.664L335.155,224.447c39.816-34.114,67.282-57.691,81.677-70.117,4.991-4.309,10.22-9.192,15.542-14.514,19.693-19.693,35.705-40.87,45.086-59.632a101.16178,101.16178,0,0,0,6.332-15.444,92.934,92.934,0,0,1-15.331,111.164,88.14855,88.14855,0,0,1-14.722,12.001c-13.646,8.719-37.989,24.031-72.354,45.513a8.17036,8.17036,0,1,0,8.662,13.856c34.41-21.51,58.8-36.852,72.489-45.599a104.46227,104.46227,0,0,0,17.479-14.215A109.23314,109.23314,0,1,0,325.536,32.981,104.40784,104.40784,0,0,0,311.319,50.46c-10.372,16.233-29.847,47.239-57.927,92.227L153.935,43.23a24.56,24.56,0,0,0-34.664,0L101.939,60.562,51.137,9.76A29.9587,29.9587,0,1,0,8.769,52.128l53.303,53.303M203.2,315.888c-12.954,11.081-23.141,19.793-29.064,24.859l-1.888-1.888c5.066-5.923,13.778-16.109,24.859-29.064Zm-23.639-23.639,5.956,5.956c-10.883,12.723-19.564,22.873-24.858,29.064l-1.75-1.75C162.899,319.089,170.171,307.369,179.561,292.249ZM448.211,29.218a101.19393,101.19393,0,0,0-15.403,6.318c-18.761,9.381-39.939,25.392-59.632,45.086-5.322,5.321-10.205,10.549-14.514,15.541-12.375,14.336-35.954,41.802-70.118,81.678L265.25,154.547c29.127-46.672,49.251-78.72,59.838-95.289a88.19953,88.19953,0,0,1,12.001-14.722A93.03959,93.03959,0,0,1,448.211,29.218ZM323.563,212.859l-23.43-23.43c34.594-40.378,58.438-68.154,70.898-82.59,4.049-4.689,8.658-9.622,13.699-14.663,18.484-18.484,38.154-33.409,55.386-42.025,15.557-7.777,25.598-8.364,28.344-5.617,2.747,2.748,2.16,12.789-5.617,28.344-8.616,17.232-23.541,36.902-42.026,55.386-5.04,5.042-9.974,9.651-14.664,13.699C391.658,154.474,363.882,178.318,323.563,212.859ZM53.794,143.372a8.21849,8.21849,0,0,1,0-11.554l77.032-77.032a8.21849,8.21849,0,0,1,11.554,0l315.83,315.83a8.21849,8.21849,0,0,1,0,11.554l-77.032,77.032a8.21849,8.21849,0,0,1-11.554,0ZM220.747,333.435c-15.121,9.39-26.84,16.663-33.27,20.652l-1.75-1.75c6.19-5.295,16.341-13.976,29.064-24.859ZM23.515,454.817,144.306,334.026,178.97,368.69,58.178,489.48a24.51043,24.51043,0,1,1-34.663-34.663Z" transform="translate(-0.009 -0.99849)"/><line class="cls-1" x1="368.29773" y1="418.22923" x2="97.032" y2="146.96351"/></svg>