<svg id="Слой_2" data-name="Слой 2" xmlns="http://www.w3.org/2000/svg" viewBox="0 0 578.46981 128.88965"><defs><style>.cls-1{fill:#e30613;}</style></defs><title>logo_Black</title><path d="M394.2724,290.01714c14.67263-6.97207,14.49876-21.68533,14.48651-26.77911-.01577-6.56029-2.2732-15.08084-6.82023-20.4367s-10.843-8.67323-18.8878-9.95463q-3.84892-.34827-7.51991-.52492-3.67289-.17224-9.44358-.17476H317.84864v126.0909h54.91323q20.98592,0,31.30427-6.30413,16.78873-9.62466,16.78873-30.462,0-12.95212-6.99562-21.09538C409.19488,294.94987,403.02281,290.44785,394.2724,290.01714Zm-37.25-27.61508H361.958a13.4027,13.4027,0,0,1,7.78238,2.01137,6.70179,6.70179,0,0,1,0,11.01772,13.38849,13.38849,0,0,1-7.78238,2.01074h-4.93567Zm5.88312,64.5665H356.8286V308.71124h6.392a30.16045,30.16045,0,0,1,6.37442.477,12.09187,12.09187,0,0,1,3.69882,1.58651,9.05638,9.05638,0,0,1,3.30532,7.14382Q376.59918,326.97083,362.90548,326.96856Z" transform="translate(-317.84864 -232.14701)"/><polygon points="257.854 0 218.679 0 218.679 126.091 296.544 126.091 296.544 94.157 257.854 94.157 257.854 0"/><polygon points="413.911 0 373.425 0 344.285 48.13 344.285 0 305.111 0 305.111 126.091 344.285 126.091 344.285 71.375 374.862 126.091 416.603 126.091 377.786 59.216 413.911 0"/><path d="M824.24821,232.147H781.40129l-40.74848,126.0909h39.69864l5.24672-18.12h34.27779l5.24545,18.12h39.6999ZM793.8583,310.82567l8.88364-23.25817,8.971,23.24Z" transform="translate(-317.84864 -232.14701)"/><path d="M488.06052,303.67484a66.08928,66.08928,0,0,1-.53,10.23034,11.62145,11.62145,0,0,1-2.10979,4.98362c-2.46145,3.44481-4.44,4.54766-8.32938,4.54766-3.66145,0-5.86438-1.5142-8.32938-4.54766a11.62145,11.62145,0,0,1-2.10979-4.98362,66.08928,66.08928,0,0,1-.53-10.23034V232.147H426.94852v74.326q0,7.34483.34953,11.45432.35205,4.11106,1.04922,8.6562a38.95181,38.95181,0,0,0,16.87643,25.2708c9.03664,6.12117,18.08149,9.18238,31.95475,9.18238s22.744-3.06122,31.78061-9.18238a38.95181,38.95181,0,0,0,16.87643-25.2708q.69653-4.5445,1.04922-8.6562.34827-4.10633.34953-11.45432V232.147H488.06052Z" transform="translate(-317.84864 -232.14701)"/><rect class="cls-1" x="539.43528" width="39.03453" height="39.03453"/></svg>