<svg id="Слой_2" data-name="Слой 2" xmlns="http://www.w3.org/2000/svg" viewBox="0 0 578.46981 219.041"><defs><style>.cls-1{fill:#e30613;}</style></defs><title>logo_Black2</title><path d="M394.2724,252.39554c14.67263-6.97207,14.49876-21.68533,14.48651-26.77911-.01577-6.56029-2.2732-15.08084-6.82023-20.4367s-10.843-8.67323-18.8878-9.95463q-3.84892-.34827-7.51991-.52492-3.67289-.17224-9.44358-.17476H317.84864v126.0909h54.91323q20.98592,0,31.30427-6.30413,16.78873-9.62466,16.78873-30.462,0-12.95212-6.99562-21.09538C409.19488,257.32827,403.02281,252.82625,394.2724,252.39554Zm-37.25-27.61508H361.958a13.4027,13.4027,0,0,1,7.78238,2.01137,6.70179,6.70179,0,0,1,0,11.01772,13.38849,13.38849,0,0,1-7.78238,2.01074h-4.93567Zm5.88312,64.5665H356.8286V271.08964h6.392a30.16045,30.16045,0,0,1,6.37442.477,12.09187,12.09187,0,0,1,3.69882,1.58651,9.05638,9.05638,0,0,1,3.30532,7.14382Q376.59918,289.34923,362.90548,289.347Z" transform="translate(-317.84864 -194.52541)"/><polygon points="257.854 0 218.679 0 218.679 126.091 296.544 126.091 296.544 94.157 257.854 94.157 257.854 0"/><polygon points="413.911 0 373.425 0 344.285 48.13 344.285 0 305.111 0 305.111 126.091 344.285 126.091 344.285 71.375 374.862 126.091 416.603 126.091 377.786 59.216 413.911 0"/><path d="M824.24821,194.52541H781.40129l-40.74848,126.0909h39.69864l5.24672-18.12h34.27779l5.24545,18.12h39.6999ZM793.8583,273.20406l8.88364-23.25817,8.971,23.24Z" transform="translate(-317.84864 -194.52541)"/><path d="M488.06052,266.05324a66.08928,66.08928,0,0,1-.53,10.23034,11.62145,11.62145,0,0,1-2.10979,4.98362c-2.46145,3.44481-4.44,4.54766-8.32938,4.54766-3.66145,0-5.86438-1.5142-8.32938-4.54766a11.62145,11.62145,0,0,1-2.10979-4.98362,66.08928,66.08928,0,0,1-.53-10.23034V194.52541H426.94852v74.326q0,7.34483.34953,11.45432.35205,4.11106,1.04922,8.6562a38.95181,38.95181,0,0,0,16.87643,25.2708c9.03664,6.12117,18.08149,9.18238,31.95475,9.18238s22.744-3.06122,31.78061-9.18238a38.95181,38.95181,0,0,0,16.87643-25.2708q.69653-4.5445,1.04922-8.6562.34827-4.10633.34953-11.45432v-74.326H488.06052Z" transform="translate(-317.84864 -194.52541)"/><rect class="cls-1" x="539.43528" width="39.03453" height="39.03453"/><path d="M537.07373,400.47461V357.49023H555.0708l9.42334,25.72168h.30908l9.38428-25.72168h17.88086v42.98438h-12.667V372.51367h-.30908l-9.88672,25.06445H559.937l-9.88672-25.06445h-.30908v27.96094Z" transform="translate(-317.84864 -194.52541)"/><path d="M605.93457,388.03906c0-8.0332,6.17969-12.47461,17.418-13.16992l10.0791-.61719v-2.47168c0-3.51465-2.50977-5.40723-6.37207-5.40723-3.707,0-6.21777,1.96973-6.60352,4.63477H608.13574c.34766-8.68945,7.95605-14.44434,19.58105-14.44434,11.46973,0,19.07813,5.832,19.07813,14.48242v29.42871H633.50977V394.2959h-.27051c-2.31738,4.3252-7.56934,6.75781-12.7832,6.75781C612.38379,401.05371,605.93457,395.7627,605.93457,388.03906Zm27.49707-3.05078v-2.97363l-7.917.54c-3.90039.27051-6.02441,1.93164-6.02441,4.55762,0,2.74219,2.27832,4.44141,5.793,4.44141C629.68555,391.55371,633.43164,388.92676,633.43164,384.98828Z" transform="translate(-317.84864 -194.52541)"/><path d="M705.6123,378.96289c0,13.94238-6.334,22.09082-17.07031,22.09082-6.25684,0-11.00684-2.97363-13.16895-7.917h-.27051v20.42969H661.43066V357.49023h13.59473v7.53125h.26953c2.16309-5.05957,6.95215-8.11035,13.09277-8.11035C699.24023,356.91113,705.6123,365.02148,705.6123,378.96289Zm-14.01953,0c0-6.835-3.24414-11.27637-8.26465-11.27637s-8.26465,4.47949-8.26465,11.31543c0,6.91309,3.24414,11.27734,8.26465,11.27734S691.59277,385.876,691.59277,378.96289Z" transform="translate(-317.84864 -194.52541)"/><path d="M763.001,400.47461H746.74219l-12.7832-17.418h-.30859v17.418H719.97852V357.49023h13.67188v16.5293h.30859l12.5127-16.5293h15.332l-15.91113,19.69629Z" transform="translate(-317.84864 -194.52541)"/><path d="M815.7168,386.958c-1.31348,8.80469-9.23047,14.44336-20.35352,14.44336-13.59375,0-21.78125-8.38086-21.78125-22.20605,0-13.86523,8.26465-22.63184,21.31836-22.63184,12.82129,0,21.08594,8.41895,21.08594,21.51172v3.90039H786.90625v.84961c0,5.252,3.51367,8.84375,8.65039,8.84375,3.78516,0,6.75879-1.77637,7.80176-4.71094Zm-28.65625-12.82227h15.98828c-.27051-4.75-3.39844-7.83984-7.95508-7.83984C790.69043,366.2959,787.4082,369.54,787.06055,374.13574Z" transform="translate(-317.84864 -194.52541)"/><path d="M866.23047,367.60938H853.91016v32.86523h-13.6709V367.60938H827.91895V357.49023h38.31152Z" transform="translate(-317.84864 -194.52541)"/></svg>